HIERARCHY
ROOT Hips
{
	OFFSET 0.000000 0.000000 0.000000
	CHANNELS 6 Xposition Yposition Zposition Xrotation Yrotation Zrotation
	JOINT LeftUpLeg_virtual
	{
		OFFSET 0.000000 0.000000 0.000000
		CHANNELS 3 Xrotation Yrotation Zrotation
		JOINT LeftUpLeg
		{
			OFFSET 11.394100 -6.187798 -0.413800
			CHANNELS 3 Xrotation Yrotation Zrotation
			JOINT LeftLeg
			{
				OFFSET 0.430247 -32.302673 3.732800
				CHANNELS 3 Xrotation Yrotation Zrotation
				JOINT LeftFoot
				{
					OFFSET -0.430247 -48.264931 -6.423300
					CHANNELS 3 Xrotation Yrotation Zrotation
					JOINT LeftToeBase
					{
						OFFSET 4.230900 -16.068199 23.438400
						CHANNELS 3 Xrotation Yrotation Zrotation
						JOINT LeftToe_End
						{
							OFFSET 4.510700 0.695400 19.974600
							CHANNELS 3 Xrotation Yrotation Zrotation
							End Site
							{
								OFFSET 0 0 0
							}
						}
					}
				}
			}
		}
	}
	JOINT RightUpLeg_virtual
	{
		OFFSET 0.000000 0.000000 0.000000
		CHANNELS 3 Xrotation Yrotation Zrotation
		JOINT RightUpLeg
		{
			OFFSET -11.333700 -6.187798 -0.413800
			CHANNELS 3 Xrotation Yrotation Zrotation
			JOINT RightLeg
			{
				OFFSET -0.430392 -32.302628 3.733000
				CHANNELS 3 Xrotation Yrotation Zrotation
				JOINT RightFoot
				{
					OFFSET 0.430392 -48.264973 -6.423500
					CHANNELS 3 Xrotation Yrotation Zrotation
					JOINT RightToeBase
					{
						OFFSET -4.230900 -16.068199 23.438400
						CHANNELS 3 Xrotation Yrotation Zrotation
						JOINT RightToe_End
						{
							OFFSET -4.510700 0.695400 19.974600
							CHANNELS 3 Xrotation Yrotation Zrotation
							End Site
							{
								OFFSET 0 0 0
							}
						}
					}
				}
			}
		}
	}
	JOINT Spine_virtual
	{
		OFFSET 0.000000 0.000000 0.000000
		CHANNELS 3 Xrotation Yrotation Zrotation
		JOINT Spine
		{
			OFFSET -0.002400 12.777504 0.315300
			CHANNELS 3 Xrotation Yrotation Zrotation
			JOINT Spine1
			{
				OFFSET -0.002067 5.816869 0.032633
				CHANNELS 3 Xrotation Yrotation Zrotation
				JOINT Spine1_split
				{
					OFFSET -0.002067 5.816869 0.032633
					CHANNELS 3 Xrotation Yrotation Zrotation
					JOINT Spine2
					{
						OFFSET -0.002067 5.816869 0.032633
						CHANNELS 3 Xrotation Yrotation Zrotation
						JOINT Neck_virtual
						{
							OFFSET 0.000000 0.000000 0.000000
							CHANNELS 3 Xrotation Yrotation Zrotation
							JOINT Neck
							{
								OFFSET -0.003700 21.199493 -0.826900
								CHANNELS 3 Xrotation Yrotation Zrotation
								JOINT Head
								{
									OFFSET 0.000000 20.442200 4.834800
									CHANNELS 3 Xrotation Yrotation Zrotation
									JOINT HeadTop_End
									{
										OFFSET 0.000000 34.668396 4.968400
										CHANNELS 3 Xrotation Yrotation Zrotation
										End Site
										{
											OFFSET 0 0 0
										}
									}
								}
							}
						}
						JOINT LeftShoulder_virtual
						{
							OFFSET 0.000000 0.000000 0.000000
							CHANNELS 3 Xrotation Yrotation Zrotation
							JOINT LeftShoulder
							{
								OFFSET 3.288150 8.794197 -1.372250
								CHANNELS 3 Xrotation Yrotation Zrotation
								JOINT LeftShoulder_split
								{
									OFFSET 3.288150 8.794197 -1.372250
									CHANNELS 3 Xrotation Yrotation Zrotation
									JOINT LeftArm
									{
										OFFSET 11.953299 -2.279007 -0.146200
										CHANNELS 3 Xrotation Yrotation Zrotation
										JOINT LeftForeArm
										{
											OFFSET 18.448900 0.000000 0.000000
											CHANNELS 3 Xrotation Yrotation Zrotation
											JOINT LeftHand
											{
												OFFSET 29.527798 0.000000 0.000000
												CHANNELS 3 Xrotation Yrotation Zrotation
												End Site
												{
													OFFSET 0 0 0
												}
											}
										}
									}
								}
							}
						}
						JOINT RightShoulder_virtual
						{
							OFFSET 0.000000 0.000000 0.000000
							CHANNELS 3 Xrotation Yrotation Zrotation
							JOINT RightShoulder
							{
								OFFSET -3.249400 8.794197 -1.372250
								CHANNELS 3 Xrotation Yrotation Zrotation
								JOINT RightShoulder_split
								{
									OFFSET -3.249400 8.794197 -1.372250
									CHANNELS 3 Xrotation Yrotation Zrotation
									JOINT RightArm
									{
										OFFSET -11.953299 -2.279007 -0.146200
										CHANNELS 3 Xrotation Yrotation Zrotation
										JOINT RightForeArm
										{
											OFFSET -18.448900 0.000000 0.000000
											CHANNELS 3 Xrotation Yrotation Zrotation
											JOINT RightHand
											{
												OFFSET -29.527802 0.000000 0.000000
												CHANNELS 3 Xrotation Yrotation Zrotation
												End Site
												{
													OFFSET 0 0 0
												}
											}
										}
									}
								}
							}
						}
					}
				}
			}
		}
	}
}
MOTION
Frames: 8
Frame Time: 0.03333333
-0.997528 83.480980 1.253353 0.000000 0.000000 0.000000 12.898028 -78.194260 10.662802 -12.600568 51.446262 35.517786 52.680730 6.062821 -9.917440 -23.653184 9.224655 2.997257 -12.156401 3.682381 -6.019706 0.000000 0.000000 0.000000 7.843912 -67.384707 6.179212 -38.816491 3.427694 -22.287978 31.272933 4.247509 -5.129675 -2.961170 6.911900 30.952460 -12.487874 0.519833 -1.918313 0.000000 0.000000 0.000000 -3.228954 -74.735684 -2.670391 10.595915 -11.676922 11.432844 -3.697286 -10.795136 5.045489 -0.955413 -2.290790 0.872758 0.000000 0.000000 0.000000 -8.254150 -11.148595 5.263208 3.218040 39.627795 1.030831 9.457576 24.192219 -5.665884 0.000000 0.000000 0.000000 -9.472437 -11.209641 5.147779 5.530263 -19.767899 17.927194 7.302209 1.679256 -6.385594 -2.356645 -14.452955 6.089477 0.342573 -34.215522 -2.441266 0.000000 0.000000 0.000000 -11.358807 -11.677025 4.971378 4.354749 -19.356194 8.085609 4.757529 -0.309257 -1.138248 -55.900614 3.742970 -10.253092 -9.850851 49.933601 14.061384 0.000000 0.000000 0.000000 
-1.678012 85.395966 2.360508 0.000000 0.000000 0.000000 4.864454 -75.840583 2.873321 -5.796293 52.668586 28.588074 47.356779 9.864551 -7.811159 -27.155481 13.334538 4.974279 -6.192727 4.312094 -9.773161 0.000000 0.000000 0.000000 3.071014 -64.886046 1.500256 -30.884934 1.262763 -20.612145 32.436077 1.088234 -4.519350 -10.169209 0.812557 25.497047 -13.680650 -1.400754 0.999933 0.000000 0.000000 0.000000 -7.451151 -72.742539 -7.496263 9.383258 -11.593895 10.979593 -4.526208 -11.039254 5.117158 -0.247280 -1.720468 0.999587 0.000000 0.000000 0.000000 -9.531058 -11.463413 5.248511 3.937400 35.500120 3.712256 9.495968 21.615211 -3.183953 0.000000 0.000000 0.000000 -10.943306 -11.410993 5.039577 6.647837 -20.835285 26.440680 7.087911 1.036160 -6.876602 -5.982857 -24.435251 10.347945 1.888759 -26.629050 0.236601 0.000000 0.000000 0.000000 -13.107695 -12.016669 4.923314 2.413383 -19.588366 5.833907 4.775288 -1.396849 -0.552257 -59.828557 6.633073 -12.843909 -8.210695 48.413822 14.379963 0.000000 0.000000 0.000000 
-1.966770 86.806046 3.713058 0.000000 0.000000 0.000000 -1.806745 -72.204573 -2.955214 -0.022642 51.684175 22.996584 41.944086 9.601092 -4.556710 -26.556838 15.089240 1.808643 -5.072740 4.570495 -12.065908 0.000000 0.000000 0.000000 -1.663587 -62.745697 -2.357322 -25.378971 0.996039 -19.307413 36.271095 -3.434418 -3.325383 -13.619303 -4.859309 17.279185 -15.483885 -4.804270 7.929074 0.000000 0.000000 0.000000 -8.983659 -69.684097 -9.256896 8.275139 -11.328392 10.229603 -5.471761 -10.956797 4.861978 1.256982 -1.379592 0.513778 0.000000 0.000000 0.000000 -10.788989 -11.404748 4.930082 5.765197 31.049186 5.587826 9.588605 19.634922 -1.198971 0.000000 0.000000 0.000000 -12.475202 -11.399011 4.768126 7.138183 -19.980605 35.178729 6.081308 0.993453 -7.119904 -13.144624 -33.813996 11.143751 3.336805 -21.323499 2.705281 0.000000 0.000000 0.000000 -14.859877 -12.111293 4.679337 0.353810 -19.845214 2.716067 4.014743 -2.420289 -0.004171 -63.926855 9.054054 -14.445295 -5.291277 46.462686 13.539021 0.000000 0.000000 0.000000 
-1.972183 87.619766 5.467407 0.000000 0.000000 0.000000 -5.844180 -67.349470 -6.066907 3.879220 49.846891 19.821643 37.006726 6.668516 -1.491430 -22.713120 14.649024 -4.362137 -7.720182 4.658829 -12.766498 0.000000 0.000000 0.000000 -5.654674 -60.568021 -5.111184 -22.265078 2.656426 -18.686960 42.035450 -7.594186 -1.591208 -10.620387 -8.984558 10.112291 -20.360304 -9.660714 16.432105 0.000000 0.000000 0.000000 -8.642092 -65.679953 -8.901564 7.152277 -10.922360 9.159125 -6.544540 -10.548268 4.145446 2.180994 -1.443459 0.017305 0.000000 0.000000 0.000000 -11.895372 -10.948152 4.155054 8.242081 26.553072 6.669996 10.091843 18.137999 -0.071319 0.000000 0.000000 0.000000 -13.945233 -11.088172 4.185920 6.473970 -17.519872 42.951388 4.735303 2.539466 -6.594541 -24.822917 -40.719112 7.575016 4.124432 -19.524034 4.485056 0.000000 0.000000 0.000000 -16.509421 -11.911650 4.038544 -1.800945 -20.279720 -1.959641 2.596208 -2.857631 0.144791 -67.349435 9.459591 -15.500571 -1.836003 44.802100 11.814650 0.000000 0.000000 0.000000 
-1.763531 87.763359 7.427143 0.000000 0.000000 0.000000 -7.622057 -61.769062 -7.342260 5.845506 48.211560 19.124103 33.064710 3.098824 0.534267 -18.096135 12.514499 -10.531117 -11.839260 4.311591 -12.193815 0.000000 0.000000 0.000000 -7.746988 -57.371888 -6.505730 -21.525399 5.348513 -18.566208 47.954714 -9.863754 0.013052 -1.417937 -10.994715 7.727552 -27.161463 -14.961447 22.873002 0.000000 0.000000 0.000000 -7.899305 -60.462091 -7.805574 6.110857 -10.474298 7.771955 -7.643327 -9.812482 2.877293 2.644647 -2.328906 -0.157021 0.000000 0.000000 0.000000 -12.810278 -10.116529 2.875697 10.646059 22.012407 6.957994 11.239257 16.753628 0.081867 0.000000 0.000000 0.000000 -15.138867 -10.447098 3.161466 4.525104 -13.930921 48.815762 3.628428 4.529670 -4.930892 -38.929035 -43.971942 0.574858 3.994996 -21.080515 5.261337 0.000000 0.000000 0.000000 -17.915243 -11.269944 2.864205 -4.165306 -20.593425 -8.736451 0.799795 -2.868354 0.549697 -70.358250 7.798890 -16.427947 1.099646 43.250380 9.589072 0.000000 0.000000 0.000000 
-1.405007 87.167496 9.387169 0.000000 0.000000 0.000000 -7.410777 -55.806190 -7.527637 5.638959 47.498474 20.687714 30.642875 0.477225 1.391327 -15.775994 9.872242 -14.229301 -14.374555 3.360621 -11.165666 0.000000 0.000000 0.000000 -7.650551 -52.432931 -6.706964 -22.724533 7.471336 -18.416970 53.353203 -9.557164 1.169332 10.163839 -9.385511 9.629116 -33.246212 -18.614135 25.288822 0.000000 0.000000 0.000000 -6.988860 -53.849505 -6.513538 5.129340 -9.944474 6.163448 -8.579566 -8.711956 1.170754 2.197219 -3.390026 -0.195067 0.000000 0.000000 0.000000 -13.614837 -8.892428 1.118115 12.491240 17.450645 6.483160 13.105195 15.206245 -0.510691 0.000000 0.000000 0.000000 -15.857790 -9.435796 1.643938 1.764960 -10.103749 52.129616 2.902319 6.056148 -2.784808 -50.617285 -43.789470 -6.834632 2.612461 -26.461123 4.684429 0.000000 0.000000 0.000000 -18.931918 -10.149276 1.159793 -6.818447 -20.426820 -17.568573 -1.036963 -2.468496 1.140209 -73.469790 4.760903 -16.813151 2.513311 41.852425 7.357087 0.000000 0.000000 0.000000 
-1.036518 86.293167 11.387886 0.000000 0.000000 0.000000 -5.840397 -49.864995 -7.254113 2.012052 47.057039 25.053354 30.893530 -1.947285 1.614133 -15.809627 6.954577 -16.220273 -14.363169 1.819705 -9.622287 0.000000 0.000000 0.000000 -6.075308 -45.244881 -6.571413 -25.629554 6.792504 -18.215177 58.982181 -6.859238 1.882319 19.182508 -4.110268 12.774032 -35.352301 -18.540381 23.964183 0.000000 0.000000 0.000000 -5.457188 -45.772448 -5.290691 4.269062 -9.251957 4.524707 -9.117385 -7.245396 -0.696272 0.903350 -4.665495 0.256862 0.000000 0.000000 0.000000 -14.149790 -7.370759 -0.868695 13.057764 12.787555 5.285334 15.351272 13.048266 -1.377334 0.000000 0.000000 0.000000 -16.008565 -8.016252 -0.218211 -1.139942 -6.564964 52.721711 3.237579 6.022178 -0.589884 -57.449213 -41.448600 -12.907344 0.165138 -35.369421 2.666606 0.000000 0.000000 0.000000 -19.286996 -8.553008 -0.801750 -9.645936 -19.362562 -28.090080 -2.445237 -1.597445 2.814960 -76.958904 1.893810 -16.518089 1.654058 42.040924 5.724124 0.000000 0.000000 0.000000 
-0.847530 85.482666 13.201294 0.000000 0.000000 0.000000 -3.430337 -43.373918 -6.952573 -5.465440 45.071571 31.848779 34.434894 -5.040279 1.825351 -16.930395 3.452822 -17.621724 -13.429895 -0.161245 -6.789235 0.000000 0.000000 0.000000 -3.764591 -36.084074 -6.759384 -30.675373 2.399912 -18.141975 65.199743 -2.922535 2.396716 22.871630 2.652426 15.454973 -31.457051 -14.402581 19.643585 0.000000 0.000000 0.000000 -3.387324 -36.164680 -4.631104 3.761379 -8.385292 3.053221 -9.100861 -5.508673 -2.346999 -0.227103 -5.773144 1.002110 0.000000 0.000000 0.000000 -14.266825 -5.732828 -2.696495 12.114107 7.972606 3.397319 17.705503 10.129702 -2.111527 0.000000 0.000000 0.000000 -15.541913 -6.402325 -2.056605 -3.573253 -3.597643 50.793207 4.441990 4.946101 0.389795 -59.694460 -38.346110 -17.295743 -3.145837 -46.552865 -0.755925 0.000000 0.000000 0.000000 -18.829329 -6.712654 -2.637621 -12.169459 -17.094613 -38.934093 -3.268626 -0.863266 5.350809 -80.807784 0.019363 -15.011743 -1.488494 44.668833 5.002962 0.000000 0.000000 0.000000 
